<svg xmlns="http://www.w3.org/2000/svg" width="256" height="224" viewBox="0 0 16 14" shape-rendering="crispEdges"><g opacity="1"><rect x="5" y="0" width="5" height="1" fill="rgba(160,190,200,0.6)"/><rect x="4" y="1" width="1" height="1" fill="rgba(160,190,200,0.6)"/><rect x="5" y="1" width="5" height="1" fill="rgba(207,227,232,0.85)"/><rect x="10" y="1" width="1" height="1" fill="rgba(160,190,200,0.6)"/><rect x="3" y="2" width="1" height="1" fill="rgba(160,190,200,0.6)"/><rect x="4" y="2" width="7" height="1" fill="rgba(207,227,232,0.85)"/><rect x="11" y="2" width="1" height="1" fill="rgba(160,190,200,0.6)"/><rect x="3" y="3" width="1" height="1" fill="rgba(160,190,200,0.6)"/><rect x="4" y="3" width="1" height="1" fill="rgba(207,227,232,0.85)"/><rect x="5" y="3" width="1" height="1" fill="#26323a"/><rect x="6" y="3" width="2" height="1" fill="rgba(207,227,232,0.85)"/><rect x="8" y="3" width="1" height="1" fill="#26323a"/><rect x="9" y="3" width="2" height="1" fill="rgba(207,227,232,0.85)"/><rect x="11" y="3" width="1" height="1" fill="rgba(160,190,200,0.6)"/><rect x="3" y="4" width="1" height="1" fill="rgba(160,190,200,0.6)"/><rect x="4" y="4" width="7" height="1" fill="rgba(207,227,232,0.85)"/><rect x="11" y="4" width="1" height="1" fill="rgba(160,190,200,0.6)"/><rect x="3" y="5" width="1" height="1" fill="rgba(160,190,200,0.6)"/><rect x="4" y="5" width="2" height="1" fill="rgba(207,227,232,0.85)"/><rect x="6" y="5" width="2" height="1" fill="rgba(160,190,200,0.6)"/><rect x="8" y="5" width="3" height="1" fill="rgba(207,227,232,0.85)"/><rect x="11" y="5" width="1" height="1" fill="rgba(160,190,200,0.6)"/><rect x="3" y="6" width="1" height="1" fill="rgba(160,190,200,0.6)"/><rect x="4" y="6" width="7" height="1" fill="rgba(207,227,232,0.85)"/><rect x="11" y="6" width="1" height="1" fill="rgba(160,190,200,0.6)"/><rect x="3" y="7" width="1" height="1" fill="rgba(160,190,200,0.6)"/><rect x="4" y="7" width="7" height="1" fill="rgba(207,227,232,0.85)"/><rect x="11" y="7" width="1" height="1" fill="rgba(160,190,200,0.6)"/><rect x="3" y="8" width="1" height="1" fill="rgba(160,190,200,0.6)"/><rect x="4" y="8" width="1" height="1" fill="rgba(207,227,232,0.85)"/><rect x="5" y="8" width="1" height="1" fill="rgba(160,190,200,0.6)"/><rect x="6" y="8" width="3" height="1" fill="rgba(207,227,232,0.85)"/><rect x="9" y="8" width="1" height="1" fill="rgba(160,190,200,0.6)"/><rect x="10" y="8" width="1" height="1" fill="rgba(207,227,232,0.85)"/><rect x="11" y="8" width="1" height="1" fill="rgba(160,190,200,0.6)"/><rect x="3" y="9" width="1" height="1" fill="rgba(160,190,200,0.6)"/><rect x="4" y="9" width="1" height="1" fill="rgba(207,227,232,0.85)"/><rect x="6" y="9" width="1" height="1" fill="rgba(160,190,200,0.6)"/><rect x="7" y="9" width="1" height="1" fill="rgba(207,227,232,0.85)"/><rect x="8" y="9" width="1" height="1" fill="rgba(160,190,200,0.6)"/><rect x="10" y="9" width="1" height="1" fill="rgba(207,227,232,0.85)"/><rect x="11" y="9" width="1" height="1" fill="rgba(160,190,200,0.6)"/><rect x="4" y="10" width="1" height="1" fill="rgba(160,190,200,0.6)"/><rect x="7" y="10" width="1" height="1" fill="rgba(207,227,232,0.85)"/><rect x="10" y="10" width="1" height="1" fill="rgba(160,190,200,0.6)"/><animate attributeName="opacity" values="1;0" keyTimes="0;0.5" calcMode="discrete" dur="0.9s" repeatCount="indefinite"/></g><g opacity="0"><rect x="5" y="1" width="5" height="1" fill="rgba(160,190,200,0.6)"/><rect x="4" y="2" width="1" height="1" fill="rgba(160,190,200,0.6)"/><rect x="5" y="2" width="5" height="1" fill="rgba(207,227,232,0.85)"/><rect x="10" y="2" width="1" height="1" fill="rgba(160,190,200,0.6)"/><rect x="3" y="3" width="1" height="1" fill="rgba(160,190,200,0.6)"/><rect x="4" y="3" width="7" height="1" fill="rgba(207,227,232,0.85)"/><rect x="11" y="3" width="1" height="1" fill="rgba(160,190,200,0.6)"/><rect x="3" y="4" width="1" height="1" fill="rgba(160,190,200,0.6)"/><rect x="4" y="4" width="1" height="1" fill="rgba(207,227,232,0.85)"/><rect x="5" y="4" width="1" height="1" fill="#26323a"/><rect x="6" y="4" width="2" height="1" fill="rgba(207,227,232,0.85)"/><rect x="8" y="4" width="1" height="1" fill="#26323a"/><rect x="9" y="4" width="2" height="1" fill="rgba(207,227,232,0.85)"/><rect x="11" y="4" width="1" height="1" fill="rgba(160,190,200,0.6)"/><rect x="3" y="5" width="1" height="1" fill="rgba(160,190,200,0.6)"/><rect x="4" y="5" width="7" height="1" fill="rgba(207,227,232,0.85)"/><rect x="11" y="5" width="1" height="1" fill="rgba(160,190,200,0.6)"/><rect x="3" y="6" width="1" height="1" fill="rgba(160,190,200,0.6)"/><rect x="4" y="6" width="2" height="1" fill="rgba(207,227,232,0.85)"/><rect x="6" y="6" width="2" height="1" fill="rgba(160,190,200,0.6)"/><rect x="8" y="6" width="3" height="1" fill="rgba(207,227,232,0.85)"/><rect x="11" y="6" width="1" height="1" fill="rgba(160,190,200,0.6)"/><rect x="3" y="7" width="1" height="1" fill="rgba(160,190,200,0.6)"/><rect x="4" y="7" width="7" height="1" fill="rgba(207,227,232,0.85)"/><rect x="11" y="7" width="1" height="1" fill="rgba(160,190,200,0.6)"/><rect x="3" y="8" width="1" height="1" fill="rgba(160,190,200,0.6)"/><rect x="4" y="8" width="7" height="1" fill="rgba(207,227,232,0.85)"/><rect x="11" y="8" width="1" height="1" fill="rgba(160,190,200,0.6)"/><rect x="3" y="9" width="1" height="1" fill="rgba(160,190,200,0.6)"/><rect x="4" y="9" width="1" height="1" fill="rgba(207,227,232,0.85)"/><rect x="5" y="9" width="1" height="1" fill="rgba(160,190,200,0.6)"/><rect x="6" y="9" width="3" height="1" fill="rgba(207,227,232,0.85)"/><rect x="9" y="9" width="1" height="1" fill="rgba(160,190,200,0.6)"/><rect x="10" y="9" width="1" height="1" fill="rgba(207,227,232,0.85)"/><rect x="11" y="9" width="1" height="1" fill="rgba(160,190,200,0.6)"/><rect x="3" y="10" width="1" height="1" fill="rgba(160,190,200,0.6)"/><rect x="4" y="10" width="1" height="1" fill="rgba(207,227,232,0.85)"/><rect x="6" y="10" width="1" height="1" fill="rgba(160,190,200,0.6)"/><rect x="7" y="10" width="1" height="1" fill="rgba(207,227,232,0.85)"/><rect x="8" y="10" width="1" height="1" fill="rgba(160,190,200,0.6)"/><rect x="10" y="10" width="1" height="1" fill="rgba(207,227,232,0.85)"/><rect x="11" y="10" width="1" height="1" fill="rgba(160,190,200,0.6)"/><rect x="4" y="11" width="1" height="1" fill="rgba(160,190,200,0.6)"/><rect x="7" y="11" width="1" height="1" fill="rgba(207,227,232,0.85)"/><rect x="10" y="11" width="1" height="1" fill="rgba(160,190,200,0.6)"/><animate attributeName="opacity" values="0;1" keyTimes="0;0.5" calcMode="discrete" dur="0.9s" repeatCount="indefinite"/></g></svg>
