<svg xmlns="http://www.w3.org/2000/svg" width="256" height="201" viewBox="0 0 14 11" shape-rendering="crispEdges"><g opacity="1"><rect x="1" y="0" width="12" height="1" fill="#14100a"/><rect x="0" y="1" width="1" height="1" fill="#14100a"/><rect x="1" y="1" width="12" height="1" fill="#8d8676"/><rect x="13" y="1" width="1" height="1" fill="#14100a"/><rect x="0" y="2" width="1" height="1" fill="#14100a"/><rect x="1" y="2" width="1" height="1" fill="#8d8676"/><rect x="2" y="2" width="1" height="1" fill="#6a6455"/><rect x="3" y="2" width="8" height="1" fill="#8d8676"/><rect x="11" y="2" width="1" height="1" fill="#6a6455"/><rect x="12" y="2" width="1" height="1" fill="#8d8676"/><rect x="13" y="2" width="1" height="1" fill="#14100a"/><rect x="1" y="3" width="12" height="1" fill="#14100a"/><rect x="2" y="4" width="1" height="1" fill="#14100a"/><rect x="3" y="4" width="1" height="1" fill="#6a6455"/><rect x="10" y="4" width="1" height="1" fill="#6a6455"/><rect x="11" y="4" width="1" height="1" fill="#14100a"/><rect x="2" y="5" width="1" height="1" fill="#14100a"/><rect x="3" y="5" width="1" height="1" fill="#6a6455"/><rect x="6" y="5" width="2" height="1" fill="#2f8fbf"/><rect x="10" y="5" width="1" height="1" fill="#6a6455"/><rect x="11" y="5" width="1" height="1" fill="#14100a"/><rect x="2" y="6" width="1" height="1" fill="#14100a"/><rect x="3" y="6" width="1" height="1" fill="#6a6455"/><rect x="5" y="6" width="1" height="1" fill="#2f8fbf"/><rect x="6" y="6" width="2" height="1" fill="#7fd4ff"/><rect x="8" y="6" width="1" height="1" fill="#2f8fbf"/><rect x="10" y="6" width="1" height="1" fill="#6a6455"/><rect x="11" y="6" width="1" height="1" fill="#14100a"/><rect x="2" y="7" width="1" height="1" fill="#14100a"/><rect x="3" y="7" width="1" height="1" fill="#6a6455"/><rect x="6" y="7" width="2" height="1" fill="#2f8fbf"/><rect x="10" y="7" width="1" height="1" fill="#6a6455"/><rect x="11" y="7" width="1" height="1" fill="#14100a"/><rect x="2" y="8" width="1" height="1" fill="#14100a"/><rect x="3" y="8" width="1" height="1" fill="#6a6455"/><rect x="10" y="8" width="1" height="1" fill="#6a6455"/><rect x="11" y="8" width="1" height="1" fill="#14100a"/><rect x="1" y="9" width="1" height="1" fill="#14100a"/><rect x="2" y="9" width="10" height="1" fill="#8d8676"/><rect x="12" y="9" width="1" height="1" fill="#14100a"/><rect x="1" y="10" width="12" height="1" fill="#14100a"/><animate attributeName="opacity" values="1;0" keyTimes="0;0.5" calcMode="discrete" dur="0.9s" repeatCount="indefinite"/></g><g opacity="0"><rect x="1" y="0" width="12" height="1" fill="#14100a"/><rect x="0" y="1" width="1" height="1" fill="#14100a"/><rect x="1" y="1" width="12" height="1" fill="#8d8676"/><rect x="13" y="1" width="1" height="1" fill="#14100a"/><rect x="0" y="2" width="1" height="1" fill="#14100a"/><rect x="1" y="2" width="1" height="1" fill="#8d8676"/><rect x="2" y="2" width="1" height="1" fill="#6a6455"/><rect x="3" y="2" width="8" height="1" fill="#8d8676"/><rect x="11" y="2" width="1" height="1" fill="#6a6455"/><rect x="12" y="2" width="1" height="1" fill="#8d8676"/><rect x="13" y="2" width="1" height="1" fill="#14100a"/><rect x="1" y="3" width="12" height="1" fill="#14100a"/><rect x="2" y="4" width="1" height="1" fill="#14100a"/><rect x="3" y="4" width="1" height="1" fill="#6a6455"/><rect x="10" y="4" width="1" height="1" fill="#6a6455"/><rect x="11" y="4" width="1" height="1" fill="#14100a"/><rect x="2" y="5" width="1" height="1" fill="#14100a"/><rect x="3" y="5" width="1" height="1" fill="#6a6455"/><rect x="6" y="5" width="1" height="1" fill="#7fd4ff"/><rect x="7" y="5" width="1" height="1" fill="#2f8fbf"/><rect x="10" y="5" width="1" height="1" fill="#6a6455"/><rect x="11" y="5" width="1" height="1" fill="#14100a"/><rect x="2" y="6" width="1" height="1" fill="#14100a"/><rect x="3" y="6" width="1" height="1" fill="#6a6455"/><rect x="5" y="6" width="1" height="1" fill="#2f8fbf"/><rect x="6" y="6" width="3" height="1" fill="#7fd4ff"/><rect x="10" y="6" width="1" height="1" fill="#6a6455"/><rect x="11" y="6" width="1" height="1" fill="#14100a"/><rect x="2" y="7" width="1" height="1" fill="#14100a"/><rect x="3" y="7" width="1" height="1" fill="#6a6455"/><rect x="6" y="7" width="1" height="1" fill="#2f8fbf"/><rect x="7" y="7" width="1" height="1" fill="#7fd4ff"/><rect x="10" y="7" width="1" height="1" fill="#6a6455"/><rect x="11" y="7" width="1" height="1" fill="#14100a"/><rect x="2" y="8" width="1" height="1" fill="#14100a"/><rect x="3" y="8" width="1" height="1" fill="#6a6455"/><rect x="10" y="8" width="1" height="1" fill="#6a6455"/><rect x="11" y="8" width="1" height="1" fill="#14100a"/><rect x="1" y="9" width="1" height="1" fill="#14100a"/><rect x="2" y="9" width="10" height="1" fill="#8d8676"/><rect x="12" y="9" width="1" height="1" fill="#14100a"/><rect x="1" y="10" width="12" height="1" fill="#14100a"/><animate attributeName="opacity" values="0;1" keyTimes="0;0.5" calcMode="discrete" dur="0.9s" repeatCount="indefinite"/></g></svg>
