<svg xmlns="http://www.w3.org/2000/svg" width="256" height="358" viewBox="0 0 10 14" shape-rendering="crispEdges"><rect x="0" y="0" width="1" height="1" fill="#14100a"/><rect x="1" y="0" width="8" height="1" fill="#6b7684"/><rect x="9" y="0" width="1" height="1" fill="#14100a"/><rect x="1" y="1" width="1" height="1" fill="#14100a"/><rect x="2" y="1" width="6" height="1" fill="#8c1f28"/><rect x="8" y="1" width="1" height="1" fill="#14100a"/><rect x="1" y="2" width="8" height="1" fill="#8c1f28"/><rect x="1" y="3" width="3" height="1" fill="#8c1f28"/><rect x="4" y="3" width="2" height="1" fill="#e0b03a"/><rect x="6" y="3" width="3" height="1" fill="#8c1f28"/><rect x="1" y="4" width="2" height="1" fill="#8c1f28"/><rect x="3" y="4" width="4" height="1" fill="#e0b03a"/><rect x="7" y="4" width="2" height="1" fill="#8c1f28"/><rect x="1" y="5" width="2" height="1" fill="#8c1f28"/><rect x="3" y="5" width="1" height="1" fill="#e0b03a"/><rect x="4" y="5" width="2" height="1" fill="#6b1219"/><rect x="6" y="5" width="1" height="1" fill="#e0b03a"/><rect x="7" y="5" width="2" height="1" fill="#8c1f28"/><rect x="1" y="6" width="2" height="1" fill="#8c1f28"/><rect x="3" y="6" width="4" height="1" fill="#e0b03a"/><rect x="7" y="6" width="2" height="1" fill="#8c1f28"/><rect x="1" y="7" width="3" height="1" fill="#8c1f28"/><rect x="4" y="7" width="2" height="1" fill="#e0b03a"/><rect x="6" y="7" width="3" height="1" fill="#8c1f28"/><rect x="1" y="8" width="8" height="1" fill="#8c1f28"/><rect x="1" y="9" width="8" height="1" fill="#8c1f28"/><rect x="1" y="10" width="1" height="1" fill="#8c1f28"/><rect x="2" y="10" width="1" height="1" fill="#6b1219"/><rect x="3" y="10" width="4" height="1" fill="#8c1f28"/><rect x="7" y="10" width="1" height="1" fill="#6b1219"/><rect x="8" y="10" width="1" height="1" fill="#8c1f28"/><rect x="1" y="11" width="1" height="1" fill="#8c1f28"/><rect x="2" y="11" width="1" height="1" fill="#6b1219"/><rect x="4" y="11" width="2" height="1" fill="#8c1f28"/><rect x="7" y="11" width="1" height="1" fill="#6b1219"/><rect x="8" y="11" width="1" height="1" fill="#8c1f28"/><rect x="2" y="12" width="1" height="1" fill="#6b1219"/><rect x="4" y="12" width="2" height="1" fill="#6b1219"/><rect x="7" y="12" width="1" height="1" fill="#6b1219"/><rect x="4" y="13" width="1" height="1" fill="#6b1219"/></svg>
