<svg xmlns="http://www.w3.org/2000/svg" width="256" height="256" viewBox="0 0 12 12" shape-rendering="crispEdges"><rect x="2" y="0" width="8" height="1" fill="#14100a"/><rect x="1" y="1" width="1" height="1" fill="#14100a"/><rect x="2" y="1" width="8" height="1" fill="#573a1c"/><rect x="10" y="1" width="1" height="1" fill="#14100a"/><rect x="0" y="2" width="1" height="1" fill="#14100a"/><rect x="1" y="2" width="10" height="1" fill="#59636e"/><rect x="11" y="2" width="1" height="1" fill="#14100a"/><rect x="0" y="3" width="1" height="1" fill="#14100a"/><rect x="1" y="3" width="2" height="1" fill="#7a5024"/><rect x="3" y="3" width="1" height="1" fill="#573a1c"/><rect x="4" y="3" width="4" height="1" fill="#7a5024"/><rect x="8" y="3" width="1" height="1" fill="#573a1c"/><rect x="9" y="3" width="2" height="1" fill="#7a5024"/><rect x="11" y="3" width="1" height="1" fill="#14100a"/><rect x="0" y="4" width="1" height="1" fill="#14100a"/><rect x="1" y="4" width="2" height="1" fill="#7a5024"/><rect x="3" y="4" width="1" height="1" fill="#573a1c"/><rect x="4" y="4" width="4" height="1" fill="#7a5024"/><rect x="8" y="4" width="1" height="1" fill="#573a1c"/><rect x="9" y="4" width="2" height="1" fill="#7a5024"/><rect x="11" y="4" width="1" height="1" fill="#14100a"/><rect x="0" y="5" width="1" height="1" fill="#14100a"/><rect x="1" y="5" width="8" height="1" fill="#59636e"/><rect x="9" y="5" width="1" height="1" fill="#454e59"/><rect x="10" y="5" width="1" height="1" fill="#59636e"/><rect x="11" y="5" width="1" height="1" fill="#14100a"/><rect x="0" y="6" width="1" height="1" fill="#14100a"/><rect x="1" y="6" width="2" height="1" fill="#7a5024"/><rect x="3" y="6" width="1" height="1" fill="#573a1c"/><rect x="4" y="6" width="4" height="1" fill="#7a5024"/><rect x="8" y="6" width="1" height="1" fill="#573a1c"/><rect x="9" y="6" width="2" height="1" fill="#7a5024"/><rect x="11" y="6" width="1" height="1" fill="#14100a"/><rect x="0" y="7" width="1" height="1" fill="#14100a"/><rect x="1" y="7" width="2" height="1" fill="#7a5024"/><rect x="3" y="7" width="1" height="1" fill="#573a1c"/><rect x="4" y="7" width="4" height="1" fill="#7a5024"/><rect x="8" y="7" width="1" height="1" fill="#573a1c"/><rect x="9" y="7" width="2" height="1" fill="#7a5024"/><rect x="11" y="7" width="1" height="1" fill="#14100a"/><rect x="0" y="8" width="1" height="1" fill="#14100a"/><rect x="1" y="8" width="2" height="1" fill="#7a5024"/><rect x="3" y="8" width="1" height="1" fill="#573a1c"/><rect x="4" y="8" width="4" height="1" fill="#7a5024"/><rect x="8" y="8" width="1" height="1" fill="#573a1c"/><rect x="9" y="8" width="2" height="1" fill="#7a5024"/><rect x="11" y="8" width="1" height="1" fill="#14100a"/><rect x="0" y="9" width="1" height="1" fill="#14100a"/><rect x="1" y="9" width="8" height="1" fill="#59636e"/><rect x="9" y="9" width="1" height="1" fill="#454e59"/><rect x="10" y="9" width="1" height="1" fill="#59636e"/><rect x="11" y="9" width="1" height="1" fill="#14100a"/><rect x="1" y="10" width="1" height="1" fill="#14100a"/><rect x="2" y="10" width="8" height="1" fill="#573a1c"/><rect x="10" y="10" width="1" height="1" fill="#14100a"/><rect x="2" y="11" width="8" height="1" fill="#14100a"/></svg>
