<svg xmlns="http://www.w3.org/2000/svg" width="256" height="192" viewBox="0 0 16 12" shape-rendering="crispEdges"><rect x="2" y="0" width="12" height="1" fill="#14100a"/><rect x="1" y="1" width="1" height="1" fill="#14100a"/><rect x="2" y="1" width="12" height="1" fill="#5c3f20"/><rect x="14" y="1" width="1" height="1" fill="#14100a"/><rect x="0" y="2" width="1" height="1" fill="#14100a"/><rect x="1" y="2" width="14" height="1" fill="#8a6134"/><rect x="15" y="2" width="1" height="1" fill="#14100a"/><rect x="0" y="3" width="1" height="1" fill="#14100a"/><rect x="1" y="3" width="14" height="1" fill="#59636e"/><rect x="15" y="3" width="1" height="1" fill="#14100a"/><rect x="0" y="4" width="1" height="1" fill="#14100a"/><rect x="1" y="4" width="14" height="1" fill="#8a6134"/><rect x="15" y="4" width="1" height="1" fill="#14100a"/><rect x="0" y="5" width="1" height="1" fill="#14100a"/><rect x="1" y="5" width="6" height="1" fill="#8a6134"/><rect x="7" y="5" width="2" height="1" fill="#14100a"/><rect x="9" y="5" width="6" height="1" fill="#8a6134"/><rect x="15" y="5" width="1" height="1" fill="#14100a"/><rect x="0" y="6" width="1" height="1" fill="#14100a"/><rect x="1" y="6" width="5" height="1" fill="#8a6134"/><rect x="6" y="6" width="1" height="1" fill="#14100a"/><rect x="7" y="6" width="2" height="1" fill="#e8b93b"/><rect x="9" y="6" width="1" height="1" fill="#14100a"/><rect x="10" y="6" width="5" height="1" fill="#8a6134"/><rect x="15" y="6" width="1" height="1" fill="#14100a"/><rect x="0" y="7" width="1" height="1" fill="#14100a"/><rect x="1" y="7" width="6" height="1" fill="#8a6134"/><rect x="7" y="7" width="2" height="1" fill="#14100a"/><rect x="9" y="7" width="6" height="1" fill="#8a6134"/><rect x="15" y="7" width="1" height="1" fill="#14100a"/><rect x="0" y="8" width="1" height="1" fill="#14100a"/><rect x="1" y="8" width="14" height="1" fill="#59636e"/><rect x="15" y="8" width="1" height="1" fill="#14100a"/><rect x="0" y="9" width="1" height="1" fill="#14100a"/><rect x="1" y="9" width="14" height="1" fill="#8a6134"/><rect x="15" y="9" width="1" height="1" fill="#14100a"/><rect x="1" y="10" width="1" height="1" fill="#14100a"/><rect x="2" y="10" width="12" height="1" fill="#5c3f20"/><rect x="14" y="10" width="1" height="1" fill="#14100a"/><rect x="2" y="11" width="12" height="1" fill="#14100a"/></svg>
