<svg xmlns="http://www.w3.org/2000/svg" width="256" height="320" viewBox="0 0 8 10" shape-rendering="crispEdges"><g opacity="1"><rect x="3" y="0" width="2" height="1" fill="#d94510"/><rect x="2" y="1" width="1" height="1" fill="#d94510"/><rect x="3" y="1" width="2" height="1" fill="#ff8c1a"/><rect x="5" y="1" width="1" height="1" fill="#d94510"/><rect x="2" y="2" width="1" height="1" fill="#ff8c1a"/><rect x="3" y="2" width="2" height="1" fill="#ffd23e"/><rect x="5" y="2" width="1" height="1" fill="#ff8c1a"/><rect x="3" y="3" width="2" height="1" fill="#ff8c1a"/><rect x="1" y="4" width="1" height="1" fill="#14100a"/><rect x="2" y="4" width="4" height="1" fill="#6b7684"/><rect x="6" y="4" width="1" height="1" fill="#14100a"/><rect x="2" y="5" width="1" height="1" fill="#14100a"/><rect x="3" y="5" width="2" height="1" fill="#6b7684"/><rect x="5" y="5" width="1" height="1" fill="#14100a"/><rect x="3" y="6" width="2" height="1" fill="#454e59"/><rect x="3" y="7" width="2" height="1" fill="#454e59"/><rect x="2" y="8" width="1" height="1" fill="#14100a"/><rect x="3" y="8" width="2" height="1" fill="#454e59"/><rect x="5" y="8" width="1" height="1" fill="#14100a"/><rect x="3" y="9" width="2" height="1" fill="#14100a"/><animate attributeName="opacity" values="1;0" keyTimes="0;0.5" calcMode="discrete" dur="0.9s" repeatCount="indefinite"/></g><g opacity="0"><rect x="2" y="0" width="2" height="1" fill="#d94510"/><rect x="2" y="1" width="1" height="1" fill="#d94510"/><rect x="3" y="1" width="2" height="1" fill="#ff8c1a"/><rect x="2" y="2" width="1" height="1" fill="#ff8c1a"/><rect x="3" y="2" width="2" height="1" fill="#ffd23e"/><rect x="5" y="2" width="1" height="1" fill="#d94510"/><rect x="3" y="3" width="2" height="1" fill="#ff8c1a"/><rect x="1" y="4" width="1" height="1" fill="#14100a"/><rect x="2" y="4" width="4" height="1" fill="#6b7684"/><rect x="6" y="4" width="1" height="1" fill="#14100a"/><rect x="2" y="5" width="1" height="1" fill="#14100a"/><rect x="3" y="5" width="2" height="1" fill="#6b7684"/><rect x="5" y="5" width="1" height="1" fill="#14100a"/><rect x="3" y="6" width="2" height="1" fill="#454e59"/><rect x="3" y="7" width="2" height="1" fill="#454e59"/><rect x="2" y="8" width="1" height="1" fill="#14100a"/><rect x="3" y="8" width="2" height="1" fill="#454e59"/><rect x="5" y="8" width="1" height="1" fill="#14100a"/><rect x="3" y="9" width="2" height="1" fill="#14100a"/><animate attributeName="opacity" values="0;1" keyTimes="0;0.5" calcMode="discrete" dur="0.9s" repeatCount="indefinite"/></g></svg>
