<svg xmlns="http://www.w3.org/2000/svg" width="256" height="256" viewBox="0 0 12 12" shape-rendering="crispEdges"><rect x="0" y="0" width="12" height="12" fill="#0e0b14"/><rect x="3" y="0" width="6" height="1" fill="#b8c0cc"/><rect x="2" y="1" width="8" height="1" fill="#b8c0cc"/><rect x="1" y="2" width="10" height="1" fill="#b8c0cc"/><rect x="1" y="3" width="10" height="1" fill="#b8c0cc"/><rect x="1" y="4" width="2" height="1" fill="#b8c0cc"/><rect x="3" y="4" width="6" height="1" fill="#363c44"/><rect x="9" y="4" width="2" height="1" fill="#b8c0cc"/><rect x="1" y="5" width="10" height="1" fill="#b8c0cc"/><rect x="1" y="6" width="10" height="1" fill="#b8c0cc"/><rect x="1" y="7" width="10" height="1" fill="#b8c0cc"/><rect x="1" y="8" width="1" height="1" fill="#181320"/><rect x="2" y="8" width="8" height="1" fill="#b8c0cc"/><rect x="10" y="8" width="1" height="1" fill="#181320"/><rect x="2" y="9" width="1" height="1" fill="#181320"/><rect x="3" y="9" width="6" height="1" fill="#eab58a"/><rect x="9" y="9" width="1" height="1" fill="#181320"/><rect x="0" y="10" width="1" height="1" fill="#181320"/><rect x="1" y="10" width="10" height="1" fill="#8a929e"/><rect x="11" y="10" width="1" height="1" fill="#181320"/><rect x="0" y="11" width="1" height="1" fill="#181320"/><rect x="1" y="11" width="1" height="1" fill="#8a929e"/><rect x="2" y="11" width="1" height="1" fill="#5c636e"/><rect x="3" y="11" width="6" height="1" fill="#8a929e"/><rect x="9" y="11" width="1" height="1" fill="#5c636e"/><rect x="10" y="11" width="1" height="1" fill="#8a929e"/><rect x="11" y="11" width="1" height="1" fill="#181320"/></svg>
